# Blender v2.80 (sub 75) OBJ File: 'grass.blend'
# www.blender.org
mtllib grass.mtl
o Plane
v -0.164813 0.004136 -0.063710
v 0.164989 0.004136 -0.063710
v -0.098677 1.281889 -0.057060
v 0.102877 1.281889 -0.057060
v 0.000101 0.004136 -0.000000
v 0.003165 2.004136 -0.055575
v -0.143599 0.595849 -0.056890
v 0.144920 0.595849 -0.056890
v 0.001682 0.595849 -0.003727
v 0.002452 1.418057 -0.019074
vt 0.652201 0.346759
vt 0.713726 0.409459
vt 0.395368 0.685732
vt 0.292628 0.700261
vt 0.589798 0.283166
vt 0.308794 0.597506
vt 0.839696 0.019720
vt 0.910532 0.091908
vt 0.981356 0.164084
vt 0.036390 0.952314
vn 0.3598 0.0194 0.9328
vn -0.3568 0.0204 0.9340
vn -0.3526 0.0043 0.9358
vn 0.3546 0.0031 0.9350
vn 0.4187 0.0559 0.9064
vn -0.4174 0.0570 0.9069
usemtl Material.001
s off
f 9/1/1 8/2/1 4/3/1 10/4/1
f 7/5/2 9/1/2 10/4/2 3/6/2
f 1/7/3 5/8/3 9/1/3 7/5/3
f 5/8/4 2/9/4 8/2/4 9/1/4
f 10/4/5 4/3/5 6/10/5
f 3/6/6 10/4/6 6/10/6
